<svg width="56" height="56" viewBox="0 0 56 56" fill="none" xmlns="http://www.w3.org/2000/svg">
<rect width="56" height="56" rx="16" fill="white"/>
<path d="M14.7922 25.7078C14.7316 25.7078 14.7165 25.6775 14.7468 25.632L15.0649 25.2231C15.0952 25.1776 15.1709 25.1473 15.2315 25.1473H20.6391C20.6997 25.1473 20.7149 25.1928 20.6846 25.2382L20.4271 25.632C20.3968 25.6775 20.321 25.7229 20.2756 25.7229L14.7922 25.7078ZM12.5049 27.1013C12.4443 27.1013 12.4292 27.0711 12.4595 27.0256L12.7776 26.6166C12.8079 26.5712 12.8836 26.5409 12.9442 26.5409H19.8515C19.9121 26.5409 19.9424 26.5863 19.9272 26.6318L19.806 26.9953C19.7909 27.0559 19.7303 27.0862 19.6697 27.0862L12.5049 27.1013ZM16.1706 28.4949C16.11 28.4949 16.0949 28.4495 16.1252 28.404L16.3372 28.0253C16.3675 27.9799 16.4281 27.9345 16.4887 27.9345H19.5182C19.5788 27.9345 19.6091 27.9799 19.6091 28.0405L19.5788 28.404C19.5788 28.4646 19.5182 28.5101 19.4728 28.5101L16.1706 28.4949ZM31.8937 25.4351C30.9394 25.6775 30.2881 25.8593 29.349 26.1016C29.1217 26.1622 29.1066 26.1773 28.9097 25.9501C28.6825 25.6926 28.5158 25.526 28.1977 25.3745C27.2435 24.905 26.3195 25.0413 25.456 25.6017C24.426 26.2682 23.8959 27.2528 23.911 28.4798C23.9262 29.6916 24.7593 30.6913 25.9559 30.8579C26.9859 30.9943 27.8494 30.6307 28.531 29.8582C28.6673 29.6916 28.7885 29.5098 28.94 29.2977H26.0165C25.6984 29.2977 25.6227 29.1008 25.7287 28.8433C25.9256 28.3737 26.2892 27.5861 26.5012 27.1922C26.5467 27.1013 26.6527 26.9499 26.8799 26.9499H32.3936C32.3633 27.3589 32.3633 27.7678 32.3027 28.1768C32.1361 29.2674 31.7271 30.2672 31.0606 31.1457C29.97 32.5847 28.5461 33.4784 26.7436 33.7208C25.2591 33.9177 23.8807 33.6299 22.6689 32.7211C21.548 31.8728 20.9118 30.7519 20.7452 29.3583C20.5483 27.7072 21.033 26.2228 22.0327 24.9201C23.1082 23.5114 24.5321 22.6177 26.274 22.2996C27.6979 22.0421 29.0612 22.2087 30.2881 23.0418C31.0909 23.572 31.6665 24.2991 32.0452 25.1776C32.1361 25.3139 32.0755 25.3897 31.8937 25.4351Z" fill="#00ACD7"/>
<path d="M36.9077 33.8117C35.5293 33.7814 34.2721 33.3876 33.2117 32.4787C32.318 31.7062 31.7576 30.7216 31.5758 29.5552C31.3031 27.8436 31.7727 26.3288 32.8027 24.9807C33.9085 23.5265 35.2415 22.7692 37.044 22.4511C38.5891 22.1784 40.0432 22.3299 41.3611 23.2236C42.5577 24.0415 43.3 25.1473 43.4969 26.6015C43.7544 28.6464 43.1636 30.3126 41.7549 31.7365C40.7552 32.7514 39.5282 33.3876 38.1195 33.6754C37.7105 33.7511 37.3015 33.7662 36.9077 33.8117V33.8117ZM40.5128 27.6921C40.4977 27.4952 40.4977 27.3437 40.4674 27.1922C40.1947 25.6926 38.8163 24.8444 37.3773 25.1776C35.9686 25.4957 35.0597 26.3894 34.7265 27.8133C34.4538 28.9948 35.0294 30.1914 36.12 30.6762C36.9532 31.0397 37.7863 30.9943 38.5891 30.5853C39.7857 29.9642 40.4371 28.9948 40.5128 27.6921V27.6921Z" fill="#00ACD7"/>
</svg>
