<svg width="56" height="56" viewBox="0 0 56 56" fill="none" xmlns="http://www.w3.org/2000/svg">
<rect width="56" height="56" rx="16" fill="#1E2235"/>
<path d="M27.9997 30.7429C29.5145 30.7429 30.7425 29.5149 30.7425 28C30.7425 26.4852 29.5145 25.2572 27.9997 25.2572C26.4848 25.2572 25.2568 26.4852 25.2568 28C25.2568 29.5149 26.4848 30.7429 27.9997 30.7429Z" fill="#61DAFB"/>
<path fill-rule="evenodd" clip-rule="evenodd" d="M15.1089 26.5549C14.4878 27.1156 14.2822 27.6056 14.2822 27.9999C14.2822 28.3943 14.4878 28.8843 15.1089 29.445C15.7299 30.0056 16.6847 30.5563 17.9496 31.0393C20.4726 32.0026 24.0256 32.6194 27.9998 32.6194C31.9741 32.6194 35.5271 32.0026 38.0501 31.0393C39.315 30.5563 40.2698 30.0056 40.8908 29.445C41.5119 28.8843 41.7175 28.3943 41.7175 27.9999C41.7175 27.6056 41.5119 27.1156 40.8908 26.5549C40.2698 25.9943 39.315 25.4436 38.0501 24.9606C35.5271 23.9973 31.9741 23.3805 27.9998 23.3805C24.0256 23.3805 20.4726 23.9973 17.9496 24.9606C16.6847 25.4436 15.7299 25.9943 15.1089 26.5549ZM17.2362 23.0922C20.04 22.0217 23.8458 21.3805 27.9998 21.3805C32.1539 21.3805 35.9597 22.0217 38.7635 23.0922C40.1619 23.6261 41.3625 24.2863 42.231 25.0703C43.0993 25.8542 43.7175 26.8425 43.7175 27.9999C43.7175 29.1574 43.0993 30.1457 42.231 30.9296C41.3625 31.7136 40.1619 32.3738 38.7635 32.9077C35.9597 33.9782 32.1539 34.6194 27.9998 34.6194C23.8458 34.6194 20.04 33.9782 17.2362 32.9077C15.8378 32.3738 14.6372 31.7136 13.7687 30.9296C12.9004 30.1457 12.2822 29.1574 12.2822 27.9999C12.2822 26.8425 12.9004 25.8542 13.7687 25.0703C14.6372 24.2863 15.8378 23.6261 17.2362 23.0922Z" fill="#61DAFB"/>
<path fill-rule="evenodd" clip-rule="evenodd" d="M22.8057 16.1135C22.0096 15.856 21.4824 15.923 21.1409 16.1201C20.7994 16.3173 20.4778 16.7403 20.3028 17.5586C20.1278 18.3767 20.1283 19.4789 20.3425 20.8159C20.7697 23.4825 22.012 26.8679 23.9992 30.3097C25.9863 33.7515 28.2969 36.5201 30.3927 38.2234C31.4434 39.0773 32.3977 39.6289 33.1937 39.8864C33.9899 40.1439 34.517 40.0769 34.8585 39.8798C35.2 39.6826 35.5216 39.2596 35.6967 38.4413C35.8716 37.6232 35.8712 36.521 35.657 35.184C35.2297 32.5174 33.9874 29.132 32.0003 25.6902C30.0132 22.2484 27.7025 19.4798 25.6068 17.7765C24.556 16.9226 23.6017 16.371 22.8057 16.1135ZM26.8682 16.2245C29.1971 18.1173 31.6553 21.0927 33.7323 24.6902C35.8094 28.2878 37.157 31.9043 37.6318 34.8676C37.8686 36.3457 37.8971 37.7155 37.6524 38.8596C37.4077 40.0036 36.8609 41.0331 35.8585 41.6118C34.8562 42.1905 33.6912 42.1494 32.5781 41.7893C31.4649 41.4291 30.2929 40.7195 29.1313 39.7754C26.8023 37.8826 24.3442 34.9072 22.2671 31.3097C20.1901 27.7121 18.8424 24.0956 18.3677 21.1323C18.1309 19.6542 18.1023 18.2844 18.347 17.1403C18.5917 15.9963 19.1386 14.9668 20.1409 14.3881C21.1433 13.8094 22.3082 13.8505 23.4213 14.2106C24.5345 14.5708 25.7065 15.2804 26.8682 16.2245Z" fill="#61DAFB"/>
<path fill-rule="evenodd" clip-rule="evenodd" d="M35.6968 17.5586C35.5218 16.7404 35.2002 16.3174 34.8587 16.1202C34.5172 15.923 33.9901 15.856 33.1939 16.1136C32.3979 16.3711 31.4436 16.9226 30.3929 17.7766C28.2971 19.4799 25.9864 22.2485 23.9993 25.6903C22.0122 29.1321 20.7699 32.5175 20.3426 35.1841C20.1284 36.521 20.128 37.6232 20.303 38.4414C20.478 39.2596 20.7996 39.6826 21.1411 39.8798C21.4826 40.077 22.0097 40.144 22.8059 39.8864C23.6019 39.6289 24.5562 39.0774 25.6069 38.2234C27.7027 36.5201 30.0133 33.7515 32.0005 30.3097C33.9876 26.8679 35.2299 23.4825 35.6571 20.8159C35.8713 19.479 35.8718 18.3768 35.6968 17.5586ZM37.632 21.1323C37.1572 24.0957 35.8095 27.7122 33.7325 31.3097C31.6555 34.9073 29.1973 37.8826 26.8683 39.7755C25.7067 40.7196 24.5347 41.4292 23.4215 41.7893C22.3084 42.1494 21.1434 42.1906 20.1411 41.6119C19.1387 41.0331 18.5919 40.0037 18.3472 38.8597C18.1025 37.7156 18.131 36.3457 18.3678 34.8677C18.8426 31.9043 20.1902 28.2878 22.2673 24.6903C24.3443 21.0927 26.8025 18.1174 29.1314 16.2245C30.2931 15.2804 31.4651 14.5708 32.5783 14.2107C33.6914 13.8506 34.8563 13.8094 35.8587 14.3881C36.8611 14.9669 37.4079 15.9963 37.6526 17.1403C37.8973 18.2844 37.8688 19.6543 37.632 21.1323Z" fill="#61DAFB"/>
</svg>
